# xmcd
#
# Track frame offsets:
#	150
#	12190
#	22888
#	31938
#	44569
#	55576
#	64144
#	74855
#	87073
#	97071
#	108454
#	118474
#
# Disc length: 1701 seconds
#
# Revision: 1
# Processed by: cddbd v1.5.2PL0 Copyright (c) Steve Scherf et al.
# Submitted via: audiograbber 1.83.01
#
DISCID=a506a30c
DTITLE=Helen Shapiro - Helen in Nashville (Mono)
DYEAR=1963
DGENRE=Country
TTITLE0=Not Responsible
TTITLE1=I Cried Myself To Sleep Last Night
TTITLE2=Young Stranger
TTITLE3=Here Today And Gone Tomorrow
TTITLE4=It's My Party
TTITLE5=No Trespassing
TTITLE6=I'm Tickled Pink
TTITLE7=I Walked Right In
TTITLE8=Sweeter Than Sweet
TTITLE9=You'd Think He Didn't Know Me
TTITLE10=When You Hurt Me I Cry
TTITLE11=Woe Is Me
EXTD=
EXTT0=
EXTT1=
EXTT2=
EXTT3=
EXTT4=
EXTT5=
EXTT6=
EXTT7=
EXTT8=
EXTT9=
EXTT10=
EXTT11=
PLAYORDER=
